PathFileType	4	(X/Y/Z)	C:\Users\Admin\Desktop\Capture Files\05302019 Reflex Trials\StaticTrial_2-Unnamed.trc
DataRate	CameraRate	NumFrames	NumMarkers	Units	OrigDataRate	OrigDataStartFrame	OrigNumFrames
300.00	300.00	      27	0	mm	300.00	1	      2482
Frame#	Time	
		

1	0.000	579.18549	-624.23578	918.15491				497.78113	-499.54034	874.60406	895.26941	-724.98376	1115.22815	431.96069	-312.92642	455.59814	180.05630	-512.68274	610.94354	158.25018	-529.05920	409.31189	821.86395	-766.13281	1021.09149	290.97028	-499.31909	729.60614				182.85138	-589.06128	724.90491	370.68622	-425.62747	714.92944	499.59558	-364.99976	739.26324				428.26044	-327.27020	639.84985	
2	0.003	579.19067	-624.26434	918.15552				497.78680	-499.53513	874.58887	895.27393	-724.96637	1115.23914	431.97125	-312.94876	455.58334	180.03798	-512.67926	610.94897	158.23851	-529.05505	409.30981	821.87085	-766.15814	1021.07465	290.18027	-498.70636	730.13232				182.84081	-589.04535	724.92188	370.69611	-425.62897	714.92407	499.58786	-364.99692	739.24847				428.28970	-327.26843	639.85620	
3	0.007	579.19690	-624.22821	918.12506				497.78061	-499.53247	874.59326	895.25458	-724.97876	1115.24133	431.95633	-312.93097	455.59647	180.04472	-512.66040	610.95319	158.23479	-529.06189	409.31696	821.86011	-766.16028	1021.07391	290.16663	-498.71552	730.10052				182.83519	-589.05402	724.92224	370.68701	-425.62445	714.92010	499.60254	-364.99786	739.26166				428.27875	-327.27548	639.83765	
4	0.010	579.18213	-624.25208	918.14502				497.77756	-499.52524	874.60400	895.23102	-724.94427	1115.24841	431.96164	-312.94202	455.58310	180.05168	-512.67151	610.95374	158.23781	-529.04688	409.32065	821.81482	-766.09222	1021.09631	290.97656	-499.34796	729.60376				182.86229	-589.08112	724.91522	370.69812	-425.64667	714.91266	499.60318	-365.00067	739.25598				428.29849	-327.28210	639.84955	
5	0.013	579.20184	-624.25165	918.13470				497.77835	-499.53119	874.59161	895.28638	-724.99023	1115.26697	431.98358	-312.95425	455.59830	180.05682	-512.65198	610.96924	158.22742	-529.02325	409.33954	821.84204	-766.11328	1021.08954	290.95724	-499.32440	729.60419				182.84810	-589.05231	724.91351	370.69406	-425.63324	714.91229	499.60165	-365.00003	739.26166				428.29367	-327.26910	639.84784	
6	0.017	579.17615	-624.23975	918.14508				497.78473	-499.52457	874.59174	895.35931	-725.01910	1115.29480	432.00378	-312.94870	455.59390	180.05704	-512.68036	610.95166	158.22185	-529.03351	409.33594	821.83295	-766.08057	1021.10614	290.17484	-498.73407	730.13165				182.84003	-589.04974	724.91357	370.69876	-425.62619	714.92041	499.59787	-365.00320	739.25702				428.28931	-327.25793	639.83624	
7	0.020	579.19586	-624.24402	918.15729				497.78894	-499.51468	874.60254	895.25177	-724.92358	1115.27356	432.01492	-312.94907	455.59930	180.05585	-512.66748	610.95245	158.21980	-529.04163	409.32867	821.79553	-766.06372	1021.11829	290.19000	-498.73560	730.12921				182.85655	-589.05206	724.91895	370.69678	-425.62115	714.91669	499.61050	-364.98730	739.26526				428.30646	-327.26749	639.83496	
8	0.023	579.19684	-624.23730	918.12512				497.79684	-499.52023	874.58783	895.25818	-724.91193	1115.25598	432.00549	-312.95752	455.59024	180.02554	-512.64288	610.96460	158.18959	-529.00995	409.33102	821.86902	-766.09497	1021.13165	290.98062	-499.33539	729.59882				182.86917	-589.05804	724.91376	370.70471	-425.62714	714.92035	499.61200	-365.00919	739.26660				428.30960	-327.27585	639.83765	
9	0.027	579.18945	-624.24194	918.13245				497.79092	-499.53049	874.59418	895.30469	-724.96387	1115.28137	432.02039	-312.97134	455.57919	180.05151	-512.65265	610.96057	158.21773	-529.01978	409.33490	821.81689	-766.02936	1021.13013	290.19571	-498.72964	730.13708				182.86024	-589.04169	724.92358	370.71671	-425.65460	714.90240	499.62125	-364.99387	739.25903				428.31903	-327.26547	639.84167	
10	0.030	579.20007	-624.24335	918.14801				497.76910	-499.52682	874.60754	895.26532	-724.92151	1115.28430	432.02371	-312.96216	455.57828	180.03683	-512.66064	610.96515	158.20296	-529.03357	409.31189	821.79169	-766.03638	1021.13898	290.93134	-499.29742	729.61810				182.83769	-589.04578	724.91968	370.71149	-425.60345	714.91925	499.62561	-365.00684	739.26837				428.29803	-327.26981	639.82898	
11	0.033	579.19519	-624.23901	918.13037				497.80966	-499.52582	874.60663	895.28925	-724.94037	1115.29260	432.02005	-312.96368	455.58041	180.02260	-512.64697	610.95673	158.19942	-529.01959	409.34210	821.82416	-766.04974	1021.15448	290.96503	-499.32947	729.62512				182.84927	-589.04364	724.92023	370.69617	-425.61475	714.90942	499.60916	-364.99344	739.26160				428.31891	-327.26132	639.84027	
12	0.037	579.20416	-624.24445	918.13757				497.82285	-499.53171	874.58685	895.28516	-724.92151	1115.29297	432.06201	-312.96198	455.58215	180.03674	-512.66748	610.97498	158.19368	-528.98834	409.33051	821.83850	-766.03723	1021.16962	290.19415	-498.73892	730.14966				182.83202	-589.02667	724.92725	370.72406	-425.62265	714.90668	499.62241	-364.99280	739.26520				428.33853	-327.26425	639.83557	
13	0.040	579.18738	-624.22205	918.15002				497.81445	-499.51886	874.60211	895.21820	-724.89886	1115.32373	432.07028	-312.96149	455.58984	180.02724	-512.64520	610.97034	158.19160	-528.98718	409.32733	821.86603	-766.08167	1021.16522	290.95795	-499.33188	729.61285				182.84094	-589.03748	724.92548	370.72324	-425.62830	714.90442	499.62054	-364.98984	739.24774				428.33377	-327.28110	639.83453	
14	0.043	579.18781	-624.22992	918.13727				497.79489	-499.50629	874.58575	895.28723	-724.91840	1115.32825	432.04749	-312.96667	455.57458	180.02644	-512.65973	610.97113	158.18033	-528.99786	409.33997	821.84027	-766.03455	1021.17444	290.96198	-499.31525	729.62122				182.82957	-589.05304	724.93079	370.72165	-425.62607	714.91058	499.63519	-364.98801	739.26239				428.35074	-327.26624	639.84241	
15	0.047	579.18677	-624.23151	918.15564				497.80078	-499.49728	874.59247	895.24237	-724.86884	1115.33765	432.05298	-312.96387	455.56891	180.01596	-512.64807	610.97253	158.15976	-528.96942	409.35519	821.81720	-766.02423	1021.21332	290.19427	-498.73627	730.13641				182.83849	-589.05615	724.94324	370.71609	-425.60486	714.91022	499.63153	-364.98792	739.26215				428.36575	-327.28336	639.83197	
16	0.050	579.21332	-624.25122	918.15222				497.78131	-499.50577	874.59778	895.23926	-724.84393	1115.35718	432.08826	-312.97714	455.56793	180.04027	-512.64868	610.98822	158.15366	-528.97681	409.36377	821.85004	-766.05566	1021.17340	290.16458	-498.72525	730.12671				182.82869	-589.04230	724.92535	370.71735	-425.59567	714.92657	499.63580	-364.98856	739.26740				428.35327	-327.27243	639.82910	
17	0.053	579.18774	-624.22137	918.13794				497.80859	-499.50473	874.58685	895.20032	-724.81555	1115.34534	432.09036	-312.97229	455.56342	180.02335	-512.64648	610.98962	158.15546	-528.95703	409.36954	821.84430	-766.00061	1021.20386	290.96252	-499.32648	729.60480				182.84065	-589.04388	724.93042	370.71463	-425.59888	714.90497	499.65710	-364.98441	739.26154				428.36722	-327.26126	639.82904	
18	0.057	579.20581	-624.24512	918.14209				497.79614	-499.51443	874.58923	895.23535	-724.85535	1115.35291	432.10059	-312.96268	455.57300	180.02982	-512.64587	610.97229	158.14137	-528.95374	409.36679	821.81531	-766.00146	1021.21790	290.18695	-498.71295	730.14740				182.82741	-589.04346	724.94885	370.73288	-425.60596	714.90179	499.65305	-365.00165	739.24756				428.36905	-327.26459	639.84668	
19	0.060	579.21069	-624.23975	918.12427				497.79956	-499.49585	874.59863	895.20935	-724.81232	1115.37317	432.10089	-312.96182	455.56186	180.00893	-512.63068	610.98926	158.14738	-528.96381	409.36349	821.85895	-766.01215	1021.22321	290.17999	-498.72391	730.13330				182.83397	-589.05402	724.92444	370.72079	-425.59918	714.91016	499.65372	-364.98465	739.26300				428.38837	-327.24545	639.83514	
20	0.063	579.19318	-624.23541	918.13586				497.81079	-499.49936	874.59601	895.27679	-724.84656	1115.37402	432.10791	-312.96207	455.57031	180.02165	-512.63385	610.98572	158.13722	-528.95105	409.37100	821.80090	-765.95038	1021.24915	290.96332	-499.32498	729.61743				182.83418	-589.03271	724.93701	370.74222	-425.62814	714.91174	499.65045	-364.98026	739.25183				428.39047	-327.26587	639.83679	
21	0.067	579.20123	-624.25250	918.13501				497.80566	-499.50000	874.59521	895.25592	-724.85968	1115.37158	432.11978	-312.97021	455.55862	180.03326	-512.64276	610.97339	158.12621	-528.92413	409.37909	821.86353	-765.98901	1021.26483	290.18076	-498.70285	730.14325				182.82860	-589.02966	724.96899	370.74954	-425.60959	714.90625	499.66281	-364.97760	739.24982				428.38144	-327.24213	639.83264	
22	0.070	579.18719	-624.20325	918.15271				497.80087	-499.50577	874.57611	895.22418	-724.80298	1115.43018	432.13904	-312.96106	455.57410	180.01521	-512.62720	610.98987	158.10913	-528.92749	409.38583	821.82611	-765.95770	1021.26776	290.17212	-498.72406	730.13336				182.83763	-589.06030	724.92615	370.71899	-425.59622	714.90613	499.67194	-364.98273	739.27478				428.39664	-327.25021	639.82935	
23	0.073	579.19092	-624.21454	918.14557				497.82263	-499.51993	874.58490	895.26276	-724.84100	1115.40869	432.13873	-312.96048	455.57352	180.02171	-512.63354	610.98907	158.12566	-528.91827	409.36926	821.84314	-765.99030	1021.25189	290.16681	-498.71460	730.13574				182.85626	-589.05518	724.94702	370.74066	-425.59143	714.89825	499.66333	-364.97586	739.24536				428.40765	-327.26624	639.83624	
24	0.077	579.19202	-624.20953	918.13062				497.82779	-499.49664	874.58514	895.23456	-724.80890	1115.40930	432.14886	-312.96228	455.57593	180.00975	-512.60913	611.00446	158.09673	-528.90869	409.39532	821.82117	-765.93878	1021.27124	290.17722	-498.72345	730.15521				182.82426	-589.03088	724.94128	370.74063	-425.60669	714.90790	499.67612	-364.98853	739.24194				428.40958	-327.26941	639.81067	
25	0.080	579.20099	-624.20862	918.15094				497.82941	-499.50812	874.60425	895.24573	-724.79980	1115.44604	432.14853	-312.96060	455.55600	180.00600	-512.59851	611.01477	158.08517	-528.90851	409.39035	821.84882	-765.99219	1021.28839	290.19180	-498.70251	730.14130				182.82556	-589.04431	724.95459	370.74463	-425.59363	714.90967	499.66965	-364.98364	739.24963				428.42795	-327.25888	639.83746	
26	0.083	579.20020	-624.24512	918.13794				497.83603	-499.49609	874.59698	895.18793	-724.76062	1115.46375	432.14664	-312.95645	455.57327	180.00975	-512.61926	611.02594	158.08643	-528.89417	409.40280	821.89136	-765.98981	1021.29303	290.17847	-498.74063	730.14008				182.83870	-589.04120	724.95831	370.76117	-425.59265	714.89783	499.68704	-364.97656	739.25537				428.39874	-327.23483	639.82953	
27	0.087	579.21442	-624.24518	918.14032				497.80768	-499.49158	874.59082	895.26727	-724.77222	1115.45679	432.16385	-312.94424	455.55740	180.01140	-512.61444	611.02026	158.06496	-528.88605	409.40802	821.88165	-765.96008	1021.28015	290.19849	-498.73407	730.14191				182.84540	-589.03723	724.94971	370.76944	-425.59543	714.89685	499.67062	-364.97345	739.26587				428.42227	-327.24600	639.82568	
